<svg id="Layer_1" enable-background="new 0 0 512.196 512.196" height="512" viewBox="0 0 512.196 512.196" width="512" xmlns="http://www.w3.org/2000/svg"><g><g clip-rule="evenodd" fill-rule="evenodd"><path d="m57.05 10.196 57.618 9 48.19-9h172.86l39.807 11 36.667-11h42.952c11.524 0 20.952 9 20.952 20v35.002l-10.477 48.5v30l10.477 57v37.5l-6.809 49.5 6.809 51v65.5l-14.143 15 14.143 19.999v42.999c0 11-9.428 20-20.952 20l-66.001-7.5-28.81 7.5-39.286-9-40.333 9h-140.903l-24.618-11-31.429 11h-26.714c-11.524 0-20.952-9-20.952-20v-150.5l7.857-57-7.857-34.5v-92.001l18.072-18.25-18.072-20.75v-79c0-11 9.58-21.775 20.952-19.999z" fill="#e8d0c1"/><path d="m233.562 160.982c-18.074 12.352-17.664 41.862-13.464 70.497 5.5 37.5 17 83 6.5 86.5s-27.475-21.076-30-36.5c-2.008-12.264-8.994-43.71-28.489-49.541-5.022-1.502-10.874-1.305-17.685 1.358-8.044 3.145-13.006 7.911-15.714 13.618-8.485 17.885 5.153 45.024 15.387 60.565 13.5 20.5 28.5 81 58 95 15.286 7.254 31.076 20.771 48 20.487 16.924.285 32.714-13.232 48-20.487 29.5-14 44.5-74.5 58-95 10.234-15.54 23.872-42.68 15.387-60.565-2.708-5.708-7.669-10.473-15.714-13.618-6.811-2.663-12.663-2.861-17.685-1.358-19.495 5.832-26.481 37.277-28.489 49.541-2.525 15.424-19.5 40-30 36.5s1-49 6.5-86.5c4.2-28.635 4.61-58.145-13.466-70.494 0-.001 0-.003 0-.004-5.595-3.823-12.961-6.002-22.534-6.002-9.571-.001-16.937 2.178-22.534 6.003z" fill="#d1a184"/><g fill="#c68a65"><path d="m196.595 281.459c.001.006.002.013.003.019-.001-.006-.002-.012-.003-.019zm-28.486-49.522c-6.238-38.041-32.762-49.459-32.762-49.459-3.5 12-7 31.25-.636 64.436 2.708-5.708 7.669-10.473 15.714-13.618 6.81-2.664 12.662-2.861 17.684-1.359z"/><path d="m233.564 160.98c5.595-3.823 12.961-6.002 22.534-6.002s16.939 2.179 22.534 6.002c1.576-30.225-5.435-53.913-22.534-71.752-17.099 17.839-24.11 41.527-22.534 71.752z"/><path d="m376.849 182.478s-26.525 11.418-32.762 49.459c5.022-1.502 10.874-1.305 17.685 1.358 8.044 3.145 13.006 7.911 15.714 13.618 6.363-33.185 2.863-52.435-.637-64.435z"/></g></g><g><path d="m485.872 67.309c.15-.694.226-1.401.226-2.111v-35.003c0-16.542-13.885-30-30.952-30h-42.952c-.974 0-1.941.142-2.873.422l-33.908 10.173-37.031-10.233c-.867-.24-1.763-.361-2.663-.361h-172.86c-.616 0-1.23.057-1.836.17l-46.504 8.684-55.926-8.735c-7.704-1.202-15.373 1.058-21.578 6.369-6.836 5.852-10.917 14.641-10.917 23.511v79c0 2.414.873 4.747 2.459 6.568l11.972 13.746-11.536 11.65c-1.854 1.873-2.895 4.401-2.895 7.037v92.001c0 .747.084 1.492.25 2.221l7.452 32.721-7.608 55.192c-.063.453-.094.909-.094 1.366v150.5c0 16.542 13.885 30 30.952 30h26.714c1.125 0 2.242-.189 3.304-.562l27.676-9.687 20.987 9.378c1.284.574 2.674.87 4.08.87h140.905c.732 0 1.463-.081 2.178-.24l38.127-8.508 37.081 8.495c1.565.359 3.197.335 4.753-.07l27.01-7.031 64.152 7.29c.375.042.752.064 1.129.064 17.067 0 30.952-13.458 30.952-30v-42.999c0-2.068-.641-4.085-1.835-5.774l-9.419-13.319 8.53-9.046c1.749-1.856 2.724-4.31 2.724-6.86v-65.5c0-.442-.029-.885-.088-1.323l-6.63-49.657 6.624-48.157c.063-.452.094-.907.094-1.363v-37.5c0-.606-.055-1.211-.165-1.808l-10.312-56.104v-28.021zm-19.774 414.887c0 5.366-4.654 9.759-10.471 9.99l-65.354-7.426c-1.218-.139-2.458-.051-3.648.259l-26.441 6.883-36.901-8.454c-1.452-.333-2.959-.336-4.411-.013l-39.258 8.76h-137.67l-10.764-4.81 19.011-23.379c3.484-4.285 2.835-10.583-1.45-14.068s-10.583-2.835-14.067 1.45l-25.455 31.303-27.154 9.504h-25.015c-6.039 0-10.952-4.486-10.952-10v-149.813l7.764-56.32c.165-1.195.112-2.41-.156-3.586l-7.607-33.404v-86.763l10.831-10.938 17.844 5.844 10.415 23.198c1.665 3.709 5.311 5.907 9.129 5.907 1.369 0 2.761-.283 4.09-.88 5.038-2.262 7.289-8.18 5.027-13.218l-12.226-27.23c-1.153-2.568-3.335-4.531-6.011-5.408l-25.297-8.284-13.804-15.849v-75.256c0-3.013 1.54-6.277 3.923-8.317 1.198-1.026 3.125-2.169 5.486-1.802l57.619 9c1.12.175 2.265.159 3.379-.05l47.28-8.83h170.577l32.973 9.111 7.433 27.959c1.189 4.477 5.234 7.433 9.657 7.433.851 0 1.716-.109 2.576-.338 5.338-1.419 8.514-6.896 7.095-12.234l-6.415-24.137 25.981-7.794h41.484c6.039 0 10.952 4.486 10.952 10v33.934l-10.251 47.457c-.15.694-.226 1.401-.226 2.111v30c0 .606.055 1.211.165 1.808l10.312 56.104v35.904l-6.717 48.822c-.122.891-.124 1.794-.005 2.687l6.722 50.342v60.863l-6.954 7.375-17.957-6.335c-2.659-.938-5.594-.709-8.075.63l-24.095 13c-4.861 2.623-6.675 8.688-4.053 13.549 1.808 3.351 5.252 5.254 8.81 5.253 1.603 0 3.229-.387 4.739-1.201l20.197-10.897 16.917 5.968 10.47 14.806v39.82z"/><path d="m381.11 173.432c-2.593-1.222-5.585-1.272-8.216-.139-1.226.527-28.985 12.916-37.594 51.501-.315.167-.631.333-.928.502-18.913 10.776-26.063 38.813-28.644 54.567-1.484 9.073-8.99 20.771-14.479 25.918-.016-10.191 3.571-30.578 6.104-44.977 1.624-9.226 3.303-18.766 4.639-27.875 3.601-24.554 5.699-55.092-10.169-73.458-.955-1.106-1.965-2.141-3.018-3.121.681-31.201-7.672-55.455-25.489-74.043-1.886-1.968-4.493-3.08-7.219-3.08s-5.333 1.112-7.219 3.08c-17.818 18.589-26.171 42.84-25.489 74.042-1.053.98-2.063 2.016-3.019 3.122-15.867 18.365-13.769 48.904-10.168 73.458 1.336 9.109 3.015 18.649 4.639 27.875 2.533 14.399 6.12 34.785 6.104 44.977-5.488-5.148-12.994-16.846-14.479-25.918-2.578-15.752-9.728-43.788-28.642-54.566-.294-.168-.607-.333-.919-.498-8.608-38.602-36.387-50.983-37.606-51.507-2.633-1.133-5.625-1.083-8.216.139-2.593 1.221-4.536 3.496-5.339 6.247-3.542 12.146-7.492 32.161-1.396 66.184-.145.405-.296.807-.427 1.221-3.109 9.78-4.93 31.346 17.823 65.895 3.701 5.62 8.012 15.789 12.575 26.556 11.465 27.045 25.733 60.705 49.489 71.979 4.061 1.928 8.28 4.411 12.748 7.04 11.494 6.765 24.496 14.417 39.016 14.417.174 0 .35-.001.523-.003 14.716.221 27.909-7.568 39.541-14.415 4.467-2.629 8.687-5.112 12.747-7.039 23.755-11.274 38.023-44.934 49.489-71.979 4.563-10.766 8.875-20.936 12.575-26.555 22.753-34.549 20.933-56.115 17.822-65.895-.131-.413-.282-.815-.427-1.219 6.095-34.014 2.151-54.025-1.397-66.186-.798-2.752-2.743-5.027-5.335-6.247zm-10.736 52.832c-1.572-.834-3.219-1.602-4.961-2.283-2.992-1.17-5.815-1.928-8.484-2.393 3.496-10.216 8.657-17.29 13.29-21.983.872 6.993 1.167 15.716.155 26.659zm-114.276-121.168c7.534 11.199 11.678 24.807 12.559 41.129-3.898-.822-8.081-1.247-12.559-1.247s-8.662.425-12.56 1.247c.88-16.322 5.026-29.93 12.56-41.129zm-114.122 94.517c4.64 4.698 9.795 11.771 13.288 21.976-2.667.464-5.49 1.223-8.481 2.392-1.741.681-3.389 1.449-4.961 2.283-1.013-10.941-.717-19.661.154-26.651zm211.771 102.365c-4.701 7.139-9.144 17.617-14.286 29.749-9.608 22.664-22.767 53.704-39.651 61.717-4.863 2.308-9.668 5.136-14.315 7.871-10.315 6.071-20.105 11.795-29.229 11.651-.111-.002-.225-.002-.336 0-9.148.144-18.912-5.58-29.228-11.651-4.646-2.735-9.452-5.563-14.316-7.872-16.885-8.013-30.043-39.053-39.65-61.717-5.143-12.132-9.585-22.61-14.286-29.75-10.104-15.344-19.475-36.23-15.467-48.835.967-3.04 3.168-7.44 11.083-10.535 3.026-1.183 5.503-1.614 7.54-1.614 2.88 0 4.883.862 6.317 1.68 9.913 5.648 16.214 24.583 18.806 40.42 2.213 13.511 13.703 34.017 26.653 41.84 7.046 4.255 12.795 3.726 16.378 2.531 12.756-4.252 11.372-22.11 10.781-29.736-.869-11.218-3.362-25.388-6.002-40.39-1.6-9.088-3.253-18.485-4.547-27.312-4.312-29.395-2.508-48.196 5.513-57.479 4.401-5.094 11.138-7.57 20.593-7.57s16.191 2.476 20.593 7.57c8.021 9.284 9.824 28.085 5.513 57.479-1.294 8.827-2.948 18.224-4.547 27.312-2.64 15.002-5.133 29.172-6.002 40.39-.591 7.626-1.975 25.484 10.781 29.736 3.583 1.194 9.334 1.723 16.379-2.532 12.951-7.824 24.44-28.33 26.651-41.839 2.594-15.837 8.896-34.773 18.808-40.42 2.45-1.395 6.554-2.921 13.856-.065 7.916 3.095 10.116 7.495 11.083 10.535 4.008 12.606-5.361 33.492-15.466 48.836z"/><path d="m137.014 98.683c5.522 0 10-4.477 10-10s-4.478-10-10-10h-.008c-5.522 0-9.996 4.477-9.996 10s4.481 10 10.004 10z"/><path d="m95.014 384.684h-.008c-5.522 0-9.996 4.477-9.996 10s4.481 10 10.004 10 10-4.477 10-10-4.478-10-10-10z"/><path d="m419.014 350.683c0-5.523-4.478-10-10-10h-.008c-5.522 0-9.996 4.477-9.996 10s4.481 10 10.004 10 10-4.477 10-10z"/><path d="m403.521 99.683c0-5.523-4.478-10-10-10h-.007c-5.522 0-9.997 4.477-9.997 10s4.481 10 10.004 10 10-4.477 10-10z"/><path d="m371.514 440.934h-.007c-5.522 0-9.997 4.477-9.997 10s4.481 10 10.004 10 10-4.477 10-10-4.478-10-10-10z"/></g></g></svg>