<svg height="512pt" viewBox="0 0 512 512" width="512pt" xmlns="http://www.w3.org/2000/svg"><path d="m437.019531 74.980469c-48.351562-48.351563-112.640625-74.980469-181.019531-74.980469s-132.667969 26.628906-181.019531 74.980469c-48.351563 48.351562-74.980469 112.640625-74.980469 181.019531s26.628906 132.667969 74.980469 181.019531c48.351562 48.351563 112.640625 74.980469 181.019531 74.980469s132.667969-26.628906 181.019531-74.980469c48.351563-48.351562 74.980469-112.640625 74.980469-181.019531s-26.628906-132.667969-74.980469-181.019531zm-181.019531 406.542969c-124.355469 0-225.523438-101.167969-225.523438-225.523438s101.167969-225.523438 225.523438-225.523438 225.523438 101.167969 225.523438 225.523438-101.167969 225.523438-225.523438 225.523438zm0 0"/><path d="m353.863281 123.941406c-8.414062 0-15.234375 6.820313-15.234375 15.238282v233.640624c0 8.417969 6.820313 15.238282 15.234375 15.238282 8.417969 0 15.238281-6.820313 15.238281-15.238282v-233.640624c0-8.417969-6.820312-15.238282-15.238281-15.238282zm0 0"/><path d="m256.003906 93.660156c-8.417968 0-15.238281 6.820313-15.238281 15.238282v294.203124c0 8.414063 6.820313 15.238282 15.238281 15.238282 8.414063 0 15.238282-6.824219 15.238282-15.238282v-294.203124c0-8.417969-6.824219-15.238282-15.238282-15.238282zm0 0"/><path d="m158.140625 123.941406c-8.414063 0-15.238281 6.820313-15.238281 15.238282v233.640624c0 8.417969 6.824218 15.238282 15.238281 15.238282 8.417969 0 15.238281-6.820313 15.238281-15.238282v-233.640624c0-8.417969-6.820312-15.238282-15.238281-15.238282zm0 0"/></svg>