<svg id="Capa_1" enable-background="new 0 0 497 497" height="512" viewBox="0 0 497 497" width="512" xmlns="http://www.w3.org/2000/svg"><g><g><path d="m311.327 357.316-99.39 90.08v29.853l36.52 19.733c42.243.051 85.064-10.662 124.281-33.303 63.727-36.791 104.975-97.551 118.963-164.316z" fill="#e8b5b1"/><path d="m463.686 124.265-32.968-28.784-20.706-35.862c-24.88-21.274-53.486-37.162-83.962-47.162h-60l-121.036 69.877v282.774l48.254 48.254 133.058-30.069 166.511-180.223c-5.022-27.014-14.629-53.653-29.151-78.805z" fill="#ff8f71"/><path d="m410.012 59.619-251.973 145.471-13.025 47.32 14.061 47.717 88.595-51.148c5.076-2.931 9.175-7.287 11.805-12.524 8.884-17.697 22.866-33.085 41.298-43.727 18.432-10.641 38.749-15.055 58.517-13.9 5.851.342 11.674-1.03 16.75-3.961l87.647-50.602c-14.523-25.151-32.79-46.79-53.675-64.646z" fill="#fad5cb"/><path d="m492.837 203.071-48.647 28.085c-13.318 7.689-30.043 6.054-41.635-4.051-23.491-20.477-58.3-24.845-86.784-8.399-28.486 16.446-42.107 48.774-36.118 79.355 2.955 15.091-3.991 30.393-17.309 38.082l-46.589 26.896c-7.674 4.431-17.143 3.815-24.417-1.245-5.885-4.095-13.035-6.038-20.179-5.519v100.961l47.085.007 105.352-60.828c9.025-5.211 19.286-7.772 29.707-7.766 37.368.025 72.178-20.025 90.881-52.469 5.205-9.028 12.554-16.633 21.579-21.844l25.938-14.975c6.576-31.392 7.12-64.108 1.136-96.29zm-117.073 119.545c-21.514 12.421-49.039 5.053-61.465-16.469-12.427-21.523-5.044-49.043 16.469-61.464 21.514-12.42 49.038-5.055 61.465 16.469 12.425 21.519 5.048 49.041-16.469 61.464z" fill="#fad5cb"/><path d="m248.457.018c26.431.022 52.637 4.249 77.593 12.438l-136.319 78.702v-58.197z" fill="#f2d4d3"/></g><g><path d="m201.071 457.244-30.121 27.299c24.929 8.181 51.105 12.407 77.507 12.439-11.061-12.722-21.129-26.007-30.214-39.738z" fill="#d6948c"/><path d="m189.731 91.158h-38.747l-145.684 106.478c-6.577 31.393-7.121 64.109-1.137 96.292l20.706 35.862 8.445 42.943c14.522 25.151 32.789 46.79 53.674 64.646h84.17v-81.104c-25.805-87.095-19.609-181.545 18.573-265.117z" fill="#ff6f4d"/><path d="m158.039 205.09-153.876 88.838c5.023 27.015 14.629 53.653 29.151 78.806l125.76-72.606c-4.32-31.512-4.665-63.456-1.035-95.038z" fill="#ffb39d"/><path d="m157.812 360.376c-10.846 6.262-16.523 18.038-15.534 29.742.746 8.829-3.456 17.337-11.13 21.768l-44.16 25.495c24.88 21.274 53.486 37.161 83.962 47.162l47.293-27.299c-20.938-31.643-36.637-65.702-47.085-100.968-4.561.332-9.119 1.66-13.346 4.1z" fill="#ffb39d"/><path d="m124.262 33.32c-63.726 36.791-104.974 97.551-118.962 164.316l184.431-106.478c14.785-32.362 34.346-63.101 58.726-91.14-42.215-.037-85.005 10.676-124.195 33.302z" fill="#e8b5b1"/></g><g fill="#313d40"><path d="m173.661 226.093c-2.07-3.587-6.659-4.815-10.245-2.745-3.587 2.071-4.816 6.658-2.745 10.245l6 10.393c2.071 3.589 6.66 4.815 10.245 2.745 3.587-2.071 4.816-6.658 2.745-10.245z"/><path d="m287.825 174.037-6-10.393c-2.07-3.587-6.66-4.813-10.245-2.745-3.587 2.071-4.816 6.658-2.745 10.245l6 10.393c1.389 2.406 3.91 3.751 6.502 3.751 1.272 0 2.562-.324 3.743-1.006 3.587-2.072 4.817-6.658 2.745-10.245z"/><path d="m242.768 193.109c-4.064-.803-8.005 1.855-8.8 5.921-1.677 8.568-10.504 13.63-18.724 10.81-3.912-1.342-8.184.743-9.527 4.662-1.344 3.918.744 8.184 4.662 9.527 16.817 5.768 34.886-4.617 38.31-22.12.794-4.065-1.856-8.005-5.921-8.8z"/></g></g></svg>